# xmcd
#
# Track frame offsets: 
#        150
#        14435
#        27955
#        42650
#        58417
#        81807
#        94987
#        111485
#        128900
#        142715
#
# Disc length: 2094 seconds
#
# Revision: 8
# Processed by: cddbd v1.5.2PL0 Copyright (c) Steve Scherf et al.
# Submitted via: ExactAudioCopy v1.0b3
#
DISCID=8c082c0a
DTITLE=Harris, Emmylou - White Shoes [OAS]
DYEAR=1983
DGENRE=Country
TTITLE0=Drivin' Wheel
TTITLE1=Pledging My Love
TTITLE2=In My Dreams
TTITLE3=White Shoes
TTITLE4=On The Radio
TTITLE5=It's Only Rock 'N Roll
TTITLE6=Diamonds Are A Girl's Best Friend
TTITLE7=Good News
TTITLE8=Baby, Better Start Turnin' 'Em Down
TTITLE9=Like An Old Fashioned Waltz
EXTD=
EXTT0=
EXTT1=
EXTT2=
EXTT3=
EXTT4=
EXTT5=
EXTT6=
EXTT7=
EXTT8=
EXTT9=
PLAYORDER=
